<svg width="43" height="39" viewBox="0 0 43 39" fill="none" xmlns="http://www.w3.org/2000/svg">
<path d="M39.0909 7.8H24.2559L30.6864 1.3845L29.3182 0L21.5 7.8L13.6818 0L12.2941 1.3845L18.7441 7.8H3.90909C2.87234 7.8 1.87804 8.21089 1.14495 8.94228C0.41185 9.67368 0 10.6657 0 11.7V35.1C0 37.245 1.75909 39 3.90909 39H39.0909C41.2409 39 43 37.245 43 35.1V11.7C43 10.6657 42.5882 9.67368 41.8551 8.94228C41.122 8.21089 40.1277 7.8 39.0909 7.8ZM39.0909 35.1H3.90909V11.7H39.0909V35.1ZM15.6364 15.6V31.2L29.3182 23.4L15.6364 15.6Z" fill="#5189F7"/>
</svg>
