<svg width="43" height="45" viewBox="0 0 43 45" fill="none" xmlns="http://www.w3.org/2000/svg">
<path d="M6.71875 0C4.93683 0 3.22789 0.74079 1.96788 2.05941C0.707866 3.37802 0 5.16645 0 7.03125V32.3438C0 34.2086 0.707866 35.997 1.96788 37.3156C3.22789 38.6342 4.93683 39.375 6.71875 39.375H17.7375C16.6738 37.1986 16.1211 34.7883 16.125 32.3438C16.1237 30.9174 16.3109 29.4977 16.6813 28.125H6.71875C6.36237 28.125 6.02058 27.9768 5.76858 27.7131C5.51657 27.4494 5.375 27.0917 5.375 26.7188C5.375 26.3458 5.51657 25.9881 5.76858 25.7244C6.02058 25.4607 6.36237 25.3125 6.71875 25.3125H17.7375C18.6196 23.5025 19.8337 21.8921 21.3107 20.5732C22.7876 19.2543 24.4983 18.2529 26.3451 17.6261C28.1919 16.9993 30.1386 16.7593 32.0741 16.92C34.0095 17.0807 35.8957 17.6388 37.625 18.5625V7.03125C37.625 5.16645 36.9171 3.37802 35.6571 2.05941C34.3971 0.74079 32.6882 0 30.9062 0H6.71875ZM6.71875 30.9375H12.0938C12.4501 30.9375 12.7919 31.0857 13.0439 31.3494C13.2959 31.6131 13.4375 31.9708 13.4375 32.3438C13.4375 32.7167 13.2959 33.0744 13.0439 33.3381C12.7919 33.6018 12.4501 33.75 12.0938 33.75H6.71875C6.36237 33.75 6.02058 33.6018 5.76858 33.3381C5.51657 33.0744 5.375 32.7167 5.375 32.3438C5.375 31.9708 5.51657 31.6131 5.76858 31.3494C6.02058 31.0857 6.36237 30.9375 6.71875 30.9375ZM13.4375 5.625C13.6975 5.62497 13.9519 5.70386 14.1699 5.85213C14.3879 6.0004 14.5601 6.21166 14.6657 6.46031L20.0407 19.1166C20.1123 19.2854 20.1515 19.4673 20.156 19.6519C20.1604 19.8365 20.1301 20.0203 20.0667 20.1926C20.0033 20.365 19.9081 20.5226 19.7865 20.6565C19.6649 20.7903 19.5194 20.8978 19.3581 20.9728C19.1968 21.0478 19.023 21.0888 18.8465 21.0935C18.6701 21.0981 18.4945 21.0664 18.3298 21.0001C18.1651 20.9337 18.0145 20.8341 17.8866 20.7068C17.7587 20.5796 17.656 20.4272 17.5843 20.2584L16.1465 16.875H10.7285L9.29069 20.2584C9.146 20.5993 8.87783 20.8661 8.54519 21.0001C8.21255 21.134 7.84267 21.1242 7.51694 20.9728C7.1912 20.8214 6.93629 20.5408 6.80827 20.1926C6.68025 19.8445 6.68962 19.4574 6.83431 19.1166L12.2093 6.46031C12.3149 6.21166 12.4871 6.0004 12.7051 5.85213C12.9231 5.70386 13.1775 5.62497 13.4375 5.625ZM14.9532 14.0625L13.4375 10.4934L11.9218 14.0625H14.9532ZM28.2188 7.03125V9.84375H30.9062C31.2626 9.84375 31.6044 9.99191 31.8564 10.2556C32.1084 10.5194 32.25 10.877 32.25 11.25C32.25 11.623 32.1084 11.9806 31.8564 12.2444C31.6044 12.5081 31.2626 12.6562 30.9062 12.6562H28.2188V15.4688C28.2188 15.8417 28.0772 16.1994 27.8252 16.4631C27.5732 16.7268 27.2314 16.875 26.875 16.875C26.5186 16.875 26.1768 16.7268 25.9248 16.4631C25.6728 16.1994 25.5312 15.8417 25.5312 15.4688V12.6562H22.8438C22.4874 12.6562 22.1456 12.5081 21.8936 12.2444C21.6416 11.9806 21.5 11.623 21.5 11.25C21.5 10.877 21.6416 10.5194 21.8936 10.2556C22.1456 9.99191 22.4874 9.84375 22.8438 9.84375H25.5312V7.03125C25.5312 6.65829 25.6728 6.3006 25.9248 6.03688C26.1768 5.77316 26.5186 5.625 26.875 5.625C27.2314 5.625 27.5732 5.77316 27.8252 6.03688C28.0772 6.3006 28.2188 6.65829 28.2188 7.03125ZM43 32.3438C43 35.7004 41.7258 38.9196 39.4578 41.2931C37.1898 43.6666 34.1137 45 30.9062 45C27.6988 45 24.6227 43.6666 22.3547 41.2931C20.0867 38.9196 18.8125 35.7004 18.8125 32.3438C18.8125 28.9871 20.0867 25.7679 22.3547 23.3944C24.6227 21.0209 27.6988 19.6875 30.9062 19.6875C34.1137 19.6875 37.1898 21.0209 39.4578 23.3944C41.7258 25.7679 43 28.9871 43 32.3438ZM32.25 26.7188C32.25 26.3458 32.1084 25.9881 31.8564 25.7244C31.6044 25.4607 31.2626 25.3125 30.9062 25.3125C30.5499 25.3125 30.2081 25.4607 29.9561 25.7244C29.7041 25.9881 29.5625 26.3458 29.5625 26.7188V30.9375H25.5312C25.1749 30.9375 24.8331 31.0857 24.5811 31.3494C24.3291 31.6131 24.1875 31.9708 24.1875 32.3438C24.1875 32.7167 24.3291 33.0744 24.5811 33.3381C24.8331 33.6018 25.1749 33.75 25.5312 33.75H29.5625V37.9688C29.5625 38.3417 29.7041 38.6994 29.9561 38.9631C30.2081 39.2268 30.5499 39.375 30.9062 39.375C31.2626 39.375 31.6044 39.2268 31.8564 38.9631C32.1084 38.6994 32.25 38.3417 32.25 37.9688V33.75H36.2812C36.6376 33.75 36.9794 33.6018 37.2314 33.3381C37.4834 33.0744 37.625 32.7167 37.625 32.3438C37.625 31.9708 37.4834 31.6131 37.2314 31.3494C36.9794 31.0857 36.6376 30.9375 36.2812 30.9375H32.25V26.7188Z" fill="#5189F7"/>
</svg>
