<svg width="42" height="39" viewBox="0 0 42 39" fill="none" xmlns="http://www.w3.org/2000/svg">
<path d="M39.0423 10.7777H2.95789C2.32078 10.7777 1.70976 11.0308 1.25926 11.4813C0.808754 11.9318 0.555664 12.5429 0.555664 13.18V36.4866C0.555664 37.1237 0.808754 37.7348 1.25926 38.1853C1.70976 38.6358 2.32078 38.8889 2.95789 38.8889H39.0423C39.6794 38.8889 40.2905 38.6358 40.741 38.1853C41.1915 37.7348 41.4446 37.1237 41.4446 36.4866V13.18C41.4446 12.5429 41.1915 11.9318 40.741 11.4813C40.2905 11.0308 39.6794 10.7777 39.0423 10.7777ZM28.8968 25.8939L16.4129 31.465C16.2185 31.5523 16.0053 31.5897 15.7928 31.5737C15.5803 31.5576 15.3752 31.4887 15.1961 31.3731C15.017 31.2576 14.8697 31.099 14.7676 30.912C14.6654 30.7249 14.6117 30.5153 14.6112 30.3022V19.16C14.6117 18.9468 14.6654 18.7372 14.7676 18.5502C14.8697 18.3631 15.017 18.2046 15.1961 18.089C15.3752 17.9735 15.5803 17.9045 15.7928 17.8885C16.0053 17.8724 16.2185 17.9098 16.4129 17.9972L28.8968 23.5555C29.1235 23.6555 29.3163 23.8193 29.4516 24.0268C29.587 24.2344 29.659 24.4769 29.659 24.7247C29.659 24.9725 29.587 25.2149 29.4516 25.4225C29.3163 25.6301 29.1235 25.7939 28.8968 25.8939Z" fill="#5189F7"/>
<path d="M36.5129 1.83335C36.5129 1.49446 36.3782 1.16945 36.1386 0.929825C35.899 0.690195 35.574 0.555573 35.2351 0.555573H7.12397C6.78508 0.555573 6.46007 0.690195 6.22044 0.929825C5.98081 1.16945 5.84619 1.49446 5.84619 1.83335V3.11113H36.5129V1.83335Z" fill="#5189F7"/>
<path d="M39.0424 6.94443C39.0424 6.60555 38.9078 6.28054 38.6682 6.04091C38.4285 5.80128 38.1035 5.66666 37.7646 5.66666H4.54243C4.20354 5.66666 3.87853 5.80128 3.6389 6.04091C3.39927 6.28054 3.26465 6.60555 3.26465 6.94443V8.22221H39.0424V6.94443Z" fill="#5189F7"/>
</svg>
